<?xml version="1.0" standalone="no"?>
<!DOCTYPE svg PUBLIC "-//W3C//DTD SVG 20010904//EN"
 "http://www.w3.org/TR/2001/REC-SVG-20010904/DTD/svg10.dtd">
<svg version="1.0" xmlns="http://www.w3.org/2000/svg"
 width="509.000000pt" height="602.000000pt" viewBox="0 0 509.000000 602.000000"
 preserveAspectRatio="xMidYMid meet">

<g transform="translate(0.000000,602.000000) scale(0.100000,-0.100000)"
fill="#000000" stroke="none">
<path d="M2340 5730 c-471 -35 -852 -113 -1507 -307 l-221 -65 -6 -47 c-26
-199 -35 -541 -14 -541 7 0 143 38 303 84 395 115 453 130 655 171 419 85 642
114 945 122 515 13 983 -50 1670 -224 165 -42 307 -76 315 -77 12 -1 14 18 12
114 -2 63 -7 176 -13 250 -5 74 -9 149 -9 167 0 31 -2 33 -81 58 -176 55 -779
195 -1059 245 -265 47 -722 70 -990 50z m337 -152 c12 -16 83 -263 83 -289 0
-32 -56 -26 -72 9 -10 20 -22 28 -46 30 -29 3 -34 0 -43 -27 -9 -25 -17 -31
-39 -31 -16 0 -31 4 -34 8 -8 13 72 295 86 304 19 12 54 10 65 -4z m-339 -57
l3 -52 37 3 37 3 0 50 c0 49 1 50 32 53 40 4 40 4 48 -175 l6 -133 -35 0 -35
0 -7 60 -7 60 -33 0 -34 0 0 -60 c0 -56 -2 -60 -26 -66 -14 -4 -30 -2 -35 3
-5 5 -12 75 -15 155 l-7 146 24 5 c40 7 44 3 47 -52z m532 11 c0 -27 -3 -97
-7 -155 l-6 -107 -34 0 -33 0 0 88 c0 48 3 117 7 155 l6 67 33 0 c34 0 34 0
34 -48z m-642 -4 c3 -35 2 -37 -30 -40 -38 -3 -36 5 -23 -145 l8 -93 -36 0
-35 0 -12 116 -13 116 -33 -6 c-32 -6 -33 -5 -40 29 -3 20 -4 38 -2 41 7 6
155 22 188 20 21 -1 25 -6 28 -38z m972 17 c15 -14 20 -31 20 -72 0 -70 -29
-103 -90 -103 -38 0 -40 -1 -40 -32 0 -60 -10 -78 -41 -78 -15 0 -30 4 -33 9
-5 8 9 200 20 270 l5 34 70 -5 c47 -4 76 -11 89 -23z m249 -33 c35 -35 45 -88
31 -159 -16 -77 -60 -124 -116 -125 -82 -1 -116 39 -115 136 1 116 45 176 128
176 35 0 50 -6 72 -28z m-1661 -113 l18 -104 56 3 56 3 4 -36 c5 -40 11 -36
-101 -54 -36 -6 -67 -8 -70 -5 -5 5 -50 264 -51 291 0 12 50 23 63 13 4 -3 15
-53 25 -111z m1828 98 c2 -7 -5 -57 -16 -111 -11 -54 -20 -102 -20 -106 0 -5
23 -11 50 -15 46 -6 50 -9 50 -33 0 -52 -9 -55 -100 -38 -46 8 -84 17 -86 18
-1 2 6 46 17 98 45 222 37 200 70 200 16 0 32 -6 35 -13z m-1955 -161 c33 -65
58 -124 55 -132 -9 -22 -63 -18 -71 6 -12 37 -82 21 -87 -19 -2 -22 -9 -27
-37 -29 l-33 -3 7 143 c4 79 11 151 16 160 12 22 60 28 77 8 7 -8 40 -68 73
-134z m2176 120 c2 -2 -12 -68 -30 -147 l-34 -144 -32 2 c-18 0 -34 3 -36 5
-2 2 9 60 25 128 17 69 32 136 35 149 5 20 10 22 37 17 17 -3 33 -8 35 -10z
m-2397 -13 c-1 -10 -9 -53 -19 -95 -17 -71 -17 -84 -4 -139 15 -68 11 -79 -34
-79 -18 0 -24 9 -34 56 -10 45 -26 73 -77 136 -68 84 -69 98 -12 98 18 0 34
-13 55 -41 l30 -41 7 29 c4 15 9 40 13 55 5 25 16 32 63 37 6 0 12 -7 12 -16z
m2589 -27 c51 -27 68 -100 26 -110 -29 -7 -45 -1 -45 18 0 8 -7 19 -15 26 -35
29 -93 -61 -83 -131 4 -33 50 -39 71 -9 13 19 18 20 36 8 32 -19 32 -33 1 -69
-24 -30 -34 -34 -75 -34 -40 0 -51 5 -76 33 -23 26 -29 41 -29 80 0 142 95
236 189 188z m-2841 -60 c73 -66 90 -208 32 -261 -29 -26 -92 -31 -128 -10
-57 34 -100 150 -81 219 22 80 117 108 177 52z m3047 1 c94 -30 97 -32 83 -62
-13 -29 -14 -29 -75 -14 -37 10 -47 9 -54 -2 -15 -23 -11 -27 38 -41 50 -14
62 -32 41 -61 -12 -17 -16 -17 -57 -2 -47 16 -55 14 -65 -21 -6 -19 -1 -23 44
-34 56 -14 68 -29 52 -65 l-11 -24 -83 26 c-46 13 -86 28 -90 32 -7 6 10 58
87 279 6 16 8 16 90 -11z m-3294 -66 c22 -22 29 -39 29 -68 0 -21 -4 -44 -8
-51 -6 -8 8 -29 40 -61 26 -26 48 -53 48 -58 0 -5 -15 -14 -34 -20 -34 -10
-36 -9 -76 38 -57 68 -75 66 -49 -8 10 -31 19 -57 19 -59 0 -4 -63 -24 -66
-21 -6 6 -87 244 -91 268 -5 25 -1 28 59 47 85 27 95 26 129 -7z"/>
<path d="M2637 5470 c-13 -37 -16 -69 -6 -76 21 -13 32 13 22 53 -6 23 -12 32
-16 23z"/>
<path d="M3100 5470 c0 -27 3 -31 23 -28 16 2 22 10 22 28 0 18 -6 26 -22 28
-20 3 -23 -1 -23 -28z"/>
<path d="M3339 5454 c-20 -25 -25 -127 -6 -143 22 -18 49 -10 64 19 16 32 17
112 1 128 -17 17 -43 15 -59 -4z"/>
<path d="M1560 5335 c0 -33 4 -45 14 -45 8 0 17 4 20 9 6 9 -20 81 -29 81 -3
0 -5 -20 -5 -45z"/>
<path d="M1093 5303 c-32 -12 -2 -132 39 -157 30 -18 51 11 46 66 -8 76 -40
110 -85 91z"/>
<path d="M858 5243 c-19 -5 -23 -29 -9 -52 11 -17 39 -8 48 15 7 20 -16 42
-39 37z"/>
<path d="M2230 5040 c-142 -14 -394 -50 -401 -58 -8 -9 7 -362 16 -370 3 -3
51 2 106 11 294 51 782 64 1094 29 94 -10 172 -17 174 -16 5 4 15 374 10 374
-2 0 -65 7 -139 16 -160 18 -718 27 -860 14z"/>
<path d="M3922 4693 l3 -187 40 -9 c52 -12 403 -113 479 -138 33 -10 61 -19
63 -19 7 0 2 375 -5 386 -4 6 -43 20 -87 31 -346 90 -477 123 -485 123 -7 0
-9 -66 -8 -187z"/>
<path d="M863 4748 l-283 -81 1 -76 c1 -114 14 -309 21 -316 3 -4 111 27 239
69 129 41 257 81 284 88 l50 14 -2 90 c-4 149 -15 294 -21 293 -4 0 -134 -37
-289 -81z"/>
<path d="M2355 4574 c-229 -18 -608 -80 -854 -139 -240 -58 -859 -244 -887
-266 -7 -6 -6 -49 3 -146 13 -138 50 -423 56 -429 1 -2 77 24 167 57 529 191
853 277 1255 331 220 30 765 33 980 5 409 -53 745 -142 1294 -341 24 -9 49
-16 56 -16 21 0 60 287 67 504 l3 99 -55 20 c-142 50 -633 178 -830 216 -163
32 -437 69 -630 85 -181 16 -538 27 -625 20z m303 -160 c53 -37 72 -148 39
-227 -32 -75 -129 -85 -174 -18 -85 125 24 323 135 245z m-293 -14 c9 -27 -1
-40 -32 -40 l-26 0 8 -119 c6 -114 6 -118 -14 -124 -27 -7 -28 -5 -35 78 -15
157 -14 155 -47 155 -25 0 -29 4 -29 30 0 28 1 29 58 33 31 2 69 4 84 5 19 1
28 -4 33 -18z m88 -47 c12 -128 9 -223 -9 -230 -8 -3 -20 -1 -25 4 -5 5 -12
73 -16 151 l-6 142 25 0 c24 0 25 -4 31 -67z m402 -18 c16 -47 33 -85 37 -85
5 0 8 36 8 80 0 64 3 82 16 87 33 12 37 -11 28 -154 l-9 -138 -29 0 c-28 0
-31 5 -65 100 l-36 100 -3 -75 c-3 -103 -8 -120 -35 -120 -22 0 -22 1 -16 102
4 57 7 122 8 146 1 41 2 42 34 42 32 0 33 -2 62 -85z m-684 -69 c27 -70 49
-135 49 -142 0 -8 -10 -14 -25 -14 -19 0 -28 8 -40 36 -11 26 -19 34 -31 30
-8 -3 -22 -6 -30 -6 -8 0 -14 -10 -14 -24 0 -40 -11 -56 -36 -56 -28 0 -28 -8
-9 150 8 69 15 130 15 137 0 13 25 22 54 20 15 -2 30 -31 67 -131z m1040 108
c23 -21 25 -80 4 -104 -13 -15 -13 -20 1 -48 18 -36 12 -66 -19 -99 -17 -19
-31 -23 -76 -23 -31 0 -61 4 -67 8 -11 7 -8 37 22 251 l6 44 55 -6 c31 -3 63
-13 74 -23z m-1279 -24 c32 -25 41 -66 22 -104 -9 -18 -11 -32 -5 -36 13 -8
51 -91 51 -112 0 -12 -8 -18 -24 -18 -20 0 -28 9 -42 45 -17 45 -47 74 -58 56
-3 -5 -2 -31 3 -57 10 -51 2 -67 -29 -61 -11 2 -21 37 -37 127 -13 69 -22 134
-20 145 4 35 101 46 139 15z m1411 13 c3 -5 -1 -39 -9 -78 -19 -98 -18 -154 2
-162 39 -15 56 20 84 170 10 52 14 57 37 57 25 0 25 -2 20 -44 -25 -182 -65
-254 -134 -243 -77 13 -93 59 -68 193 8 49 18 95 20 102 5 13 41 17 48 5z
m-1615 -55 c3 -25 0 -28 -28 -28 -20 0 -40 -9 -57 -26 -21 -21 -25 -32 -20
-65 9 -69 56 -113 101 -96 21 8 5 63 -17 59 -17 -3 -34 35 -20 49 4 4 24 10
43 11 l34 3 17 -73 c16 -73 16 -73 -5 -87 -64 -41 -147 -22 -183 43 -51 91
-34 184 40 222 57 28 91 23 95 -12z m1884 12 c51 -15 68 -34 68 -81 0 -28 -7
-47 -22 -62 -20 -20 -23 -31 -20 -96 4 -71 3 -73 -20 -69 -19 2 -23 10 -26 43
-4 66 -11 85 -31 85 -13 0 -20 -12 -27 -47 -8 -42 -12 -48 -36 -51 -16 -2 -28
-1 -28 3 0 8 59 257 65 273 5 15 28 15 77 2z m-2078 -167 c20 -76 36 -142 36
-146 0 -5 -12 -7 -27 -5 -25 3 -28 10 -60 132 -19 70 -32 135 -29 142 3 8 14
14 24 14 16 0 25 -22 56 -137z m2291 114 c50 -13 63 -29 46 -55 -6 -11 -17
-11 -47 -3 -44 12 -40 14 -49 -21 -6 -24 -4 -28 27 -36 26 -6 33 -13 33 -33 0
-23 -3 -24 -47 -21 -38 3 -48 0 -48 -11 0 -9 -2 -22 -6 -30 -3 -10 8 -18 40
-27 26 -7 46 -14 46 -16 0 -1 -4 -14 -9 -27 l-10 -25 -62 18 c-35 9 -65 22
-67 29 -2 7 13 71 34 142 41 142 36 137 119 116z m-2390 -138 c25 -68 45 -130
45 -136 0 -7 -11 -13 -24 -13 -22 0 -28 10 -55 88 l-31 87 4 -97 c4 -82 2 -97
-12 -103 -21 -8 -33 6 -81 95 -22 41 -41 71 -41 65 0 -5 11 -49 24 -97 24 -87
24 -87 4 -94 -11 -3 -23 -1 -27 5 -4 6 -22 69 -40 142 -36 140 -35 148 16 149
17 0 32 -18 68 -82 l46 -83 -7 96 -7 96 29 10 c16 6 32 7 37 3 4 -3 28 -62 52
-131z m2584 80 c30 -11 32 -13 26 -53 -3 -22 -10 -88 -16 -146 -6 -58 -12
-107 -15 -109 -2 -2 -14 0 -27 6 -19 9 -23 17 -19 47 4 32 1 37 -24 46 -24 10
-30 8 -46 -12 -10 -13 -18 -26 -18 -30 0 -11 -48 -10 -54 0 -4 7 150 262 158
262 2 0 17 -5 35 -11z m-2865 -161 c35 -81 53 -135 47 -141 -22 -22 -44 1 -79
85 -19 49 -37 87 -38 85 -2 -1 3 -45 10 -97 8 -52 12 -98 9 -102 -2 -5 -12 -8
-23 -8 -12 0 -34 26 -65 75 -25 41 -48 75 -50 75 -2 0 9 -39 26 -87 29 -87 28
-102 -8 -103 -14 0 -105 271 -95 282 4 4 19 10 34 13 26 7 31 2 78 -71 53 -84
56 -82 40 31 -9 62 -9 71 7 82 38 29 49 17 107 -119z m3031 102 c3 -5 -10 -48
-30 -95 -38 -92 -44 -139 -20 -149 35 -13 53 12 107 148 26 65 35 73 60 54 15
-12 13 -21 -19 -98 -41 -100 -74 -147 -108 -156 -57 -14 -115 24 -115 76 0 27
24 98 64 193 16 36 47 50 61 27z m-3302 -202 c54 -127 55 -133 36 -142 -12 -6
-23 -6 -29 0 -17 18 -111 248 -106 261 3 7 14 13 24 13 15 0 31 -29 75 -132z"/>
<path d="M2570 4355 c-21 -26 -24 -107 -6 -143 22 -43 59 -44 81 -2 31 60 7
160 -38 160 -14 0 -30 -7 -37 -15z"/>
<path d="M2090 4291 c0 -16 -3 -36 -6 -45 -5 -12 0 -16 19 -16 l26 0 -16 45
c-17 52 -23 56 -23 16z"/>
<path d="M3126 4334 c-13 -34 -7 -54 18 -54 33 0 46 38 20 57 -23 17 -31 16
-38 -3z"/>
<path d="M3110 4213 c0 -10 -3 -28 -6 -40 -5 -19 -2 -23 18 -23 46 0 66 50 29
70 -28 15 -41 12 -41 -7z"/>
<path d="M1855 4309 c-7 -11 2 -79 11 -79 19 0 44 24 44 43 0 38 -39 63 -55
36z"/>
<path d="M3577 4263 c-3 -5 -8 -23 -12 -40 -6 -31 -5 -33 19 -33 33 0 56 41
36 65 -13 16 -36 20 -43 8z"/>
<path d="M3963 4100 c-28 -48 -28 -50 -3 -50 21 0 34 32 28 69 -2 18 -7 15
-25 -19z"/>
<path d="M2390 3910 c-359 -19 -861 -119 -1236 -246 -145 -49 -450 -166 -461
-178 -8 -7 113 -481 172 -676 194 -636 459 -1186 752 -1555 220 -277 540 -586
876 -844 l108 -83 71 48 c437 301 936 910 1248 1525 188 370 349 870 465 1446
19 95 35 175 35 177 0 14 -365 140 -610 211 -219 63 -319 85 -540 119 -337 52
-615 70 -880 56z m-1347 -467 c10 -10 44 -31 75 -48 31 -16 62 -41 69 -55 7
-14 21 -25 32 -25 12 0 22 -4 23 -10 3 -17 21 -29 63 -44 67 -23 206 -92 280
-140 51 -33 78 -44 102 -42 24 2 34 -3 43 -19 6 -12 17 -19 24 -17 7 3 35 -6
62 -19 72 -35 97 -32 136 17 44 54 137 128 218 172 310 167 705 111 947 -135
151 -153 217 -307 217 -513 0 -123 -17 -201 -64 -304 -17 -35 -30 -65 -30 -67
0 -2 32 -24 70 -49 39 -25 68 -50 65 -55 -6 -10 13 -14 47 -11 9 1 19 -7 23
-19 4 -11 21 -27 38 -35 35 -15 87 -59 87 -73 0 -12 -43 -31 -89 -38 -42 -7
-86 10 -78 29 3 8 -8 12 -32 12 -20 0 -36 5 -36 12 0 14 -12 26 -28 29 -7 1
-43 21 -80 44 l-68 43 -37 -35 c-97 -93 -218 -162 -349 -200 -65 -19 -102 -23
-223 -23 -124 0 -156 4 -220 24 -293 91 -489 300 -546 583 -20 97 -15 222 11
315 l18 63 -28 35 c-15 20 -39 41 -53 46 -15 6 -35 19 -45 30 -14 15 -22 17
-36 9 -20 -10 -48 11 -37 28 3 5 -14 17 -37 27 -139 60 -300 151 -341 192 -20
19 -32 24 -52 19 -20 -5 -27 -3 -31 14 -3 11 -14 20 -24 20 -63 0 -110 65
-117 162 -3 37 -1 68 3 68 5 0 17 -8 28 -17z m2903 -882 c87 -26 94 -31 97
-65 2 -25 -3 -30 -41 -41 -23 -7 -54 -21 -68 -30 -18 -12 -29 -14 -36 -7 -16
16 -3 39 32 60 l30 19 -47 16 c-43 14 -49 14 -60 0 -11 -14 -14 -12 -24 11
-10 22 -9 29 6 46 10 12 24 19 31 16 6 -2 42 -14 80 -25z m-2524 -52 c-5 -31
-25 -35 -30 -5 -5 26 5 46 21 40 9 -3 12 -15 9 -35z m-84 -41 c25 -58 38 -68
59 -47 8 8 17 8 33 -1 29 -16 19 -35 -18 -34 -21 1 -32 -3 -35 -15 -2 -11 -37
-30 -92 -50 -76 -29 -90 -32 -111 -20 -32 17 -30 29 12 70 39 37 79 97 71 105
-13 13 -79 -27 -90 -55 -10 -26 -13 -28 -39 -19 -27 10 -27 11 -13 38 8 16 25
36 37 44 26 18 80 21 108 6 18 -10 19 -8 14 19 -6 27 -4 29 16 24 16 -4 31
-24 48 -65z m132 43 c15 -29 12 -41 -8 -41 -14 0 -19 8 -20 30 -1 34 12 39 28
11z m2395 -137 c81 -29 95 -44 95 -105 0 -38 -48 -69 -107 -69 -36 0 -46 5
-71 36 -28 34 -30 35 -37 15 -8 -26 -17 -27 -32 -2 -10 16 -9 27 2 55 8 20 22
52 30 72 10 24 20 34 29 31 8 -3 49 -18 91 -33z m-2445 -84 c17 -9 49 -85 39
-93 -14 -12 -168 -67 -185 -67 -12 0 -27 6 -33 14 -10 12 3 20 74 47 91 34 93
37 70 92 -8 19 6 22 35 7z m2218 -23 c15 -11 17 -61 2 -52 -7 4 -9 -2 -5 -18
6 -22 2 -26 -29 -37 -36 -12 -66 -43 -66 -68 0 -12 5 -11 25 2 24 16 25 15 25
-3 0 -11 -9 -25 -19 -31 -16 -8 -23 -6 -35 12 -25 35 -20 83 9 102 20 13 24
22 19 41 -5 19 -2 25 11 25 9 0 16 7 14 18 -1 9 -1 20 0 24 1 8 30 0 49 -15z
m139 -122 c80 -37 103 -56 103 -87 0 -13 -8 -18 -27 -18 -16 -1 -39 -7 -52
-14 l-24 -13 21 -12 c14 -8 22 -21 22 -39 0 -26 -2 -27 -48 -27 -41 1 -47 3
-50 23 -4 23 -51 54 -87 56 -27 1 -31 32 -5 46 16 8 30 7 66 -10 44 -19 48
-19 75 -3 16 10 29 20 29 23 0 3 -25 18 -55 33 -45 22 -55 31 -55 52 0 14 2
25 4 25 3 0 40 -16 83 -35z m-2289 -14 c8 -5 12 -17 10 -27 -3 -16 -15 -20
-68 -24 -56 -4 -66 -8 -77 -30 -34 -67 -7 -82 85 -48 51 19 72 23 90 15 12 -6
22 -15 22 -21 0 -11 -121 -61 -148 -61 -7 0 -17 -6 -21 -14 -5 -8 -16 -11 -29
-7 -17 6 -20 13 -15 41 5 30 3 35 -21 41 -30 7 -32 20 -12 69 16 37 21 39 98
35 39 -1 47 1 53 19 7 23 13 25 33 12z m157 -85 c16 -11 17 -17 7 -29 -10 -11
-8 -19 9 -41 24 -30 18 -33 -22 -9 -31 18 -46 51 -35 78 7 19 17 19 41 1z
m2111 -172 c23 9 29 -22 9 -44 -25 -28 -41 -25 -115 18 -63 37 -78 57 -66 88
5 13 20 8 82 -26 42 -23 82 -39 90 -36z m-2107 -29 c23 -41 41 -76 41 -78 0
-2 -43 -23 -95 -47 -86 -39 -98 -42 -120 -30 -14 7 -25 17 -25 20 0 4 38 24
85 45 47 21 85 39 85 41 0 2 -5 14 -11 27 l-11 24 -61 -33 c-68 -37 -94 -41
-122 -20 -18 13 -13 17 63 55 47 24 82 47 82 56 0 9 9 15 24 15 20 0 32 -14
65 -75z m1771 20 c30 -36 0 -132 -49 -163 -18 -11 -21 -10 -21 6 0 26 -10 33
-31 21 -16 -8 -19 -6 -19 15 0 33 30 43 50 16 16 -21 17 -21 37 -3 21 17 27
32 24 62 -1 9 -9 11 -26 7 -21 -5 -25 -3 -25 17 0 13 3 27 7 30 11 12 40 7 53
-8z m197 -52 c74 -41 83 -50 83 -75 0 -28 0 -28 -30 -13 -16 9 -53 29 -82 46
l-52 31 -18 -24 c-9 -13 -18 -26 -18 -30 0 -18 -20 -6 -26 16 -6 24 31 96 50
96 5 0 47 -21 93 -47z m-96 -155 c68 -43 68 -43 69 -89 0 -50 -7 -60 -59 -77
-51 -18 -80 -6 -98 39 -11 29 -21 39 -38 39 -14 0 -25 7 -28 19 -6 24 0 31 28
31 16 0 26 -10 38 -40 14 -36 19 -40 49 -40 39 0 78 10 78 19 0 3 -30 25 -65
49 -51 33 -65 47 -65 67 0 14 5 25 11 25 6 0 42 -19 80 -42z m-1877 -14 c11
-4 16 -19 16 -45 l0 -40 40 23 c23 14 40 30 40 41 0 23 38 20 53 -4 17 -27 3
-43 -78 -93 -71 -45 -78 -47 -105 -36 -35 14 -34 13 -16 48 7 15 17 46 21 70
4 23 8 42 10 42 2 0 10 -3 19 -6z m1829 -217 c32 -13 36 -43 7 -52 -23 -7 -27
-6 -107 59 -42 33 -63 57 -63 71 0 38 12 36 74 -16 34 -28 73 -56 89 -62z
m-1570 61 c20 -23 33 -46 31 -50 -3 -4 -40 -32 -83 -63 -70 -48 -82 -54 -105
-45 -14 5 -26 13 -26 17 0 5 32 30 70 56 66 45 83 68 60 82 -5 3 -15 15 -20
26 -9 16 -7 19 14 19 16 0 36 -14 59 -42z m1467 -149 c0 -10 7 -16 17 -15 12
0 19 -7 21 -21 3 -17 -2 -23 -16 -23 -35 0 -52 -12 -52 -36 0 -27 -26 -44 -67
-44 -41 0 -52 11 -66 66 -10 42 -16 49 -39 52 -29 3 -34 16 -19 41 6 9 18 11
33 8 20 -5 26 -16 34 -54 7 -39 14 -49 37 -57 35 -13 81 3 85 29 2 13 -14 36
-43 65 -48 47 -52 58 -34 93 11 20 14 19 60 -34 27 -30 49 -61 49 -70z m-1350
6 c0 -20 -7 -26 -42 -36 -59 -17 -78 -36 -78 -75 0 -23 6 -37 20 -44 18 -10
28 -4 76 39 55 51 76 59 103 42 11 -7 2 -20 -40 -60 -30 -28 -59 -50 -65 -51
-7 0 -14 -9 -17 -20 -3 -13 -14 -20 -29 -20 -19 0 -24 5 -23 28 0 23 -5 28
-35 32 -33 5 -35 7 -38 48 -4 53 7 68 56 77 45 8 62 21 62 46 0 14 7 19 25 19
20 0 25 -5 25 -25z m1135 -130 c30 -47 55 -89 55 -93 0 -5 -6 -17 -14 -27 -12
-17 -17 -12 -65 58 -28 43 -57 77 -63 77 -7 0 -7 -4 0 -12 13 -17 -3 -58 -23
-58 -8 0 -15 -4 -15 -10 0 -5 4 -10 8 -10 23 0 52 -43 52 -78 -1 -30 -3 -34
-11 -19 -6 9 -32 28 -58 42 -27 13 -51 31 -55 40 -8 22 -7 78 2 91 6 9 122 84
129 84 2 0 28 -38 58 -85z m-922 -24 c3 -12 15 -21 33 -23 46 -5 43 -39 -10
-119 -37 -56 -51 -69 -72 -69 -32 0 -29 8 26 90 22 32 40 66 40 74 0 24 -34
19 -45 -6 -6 -13 -26 -26 -50 -33 -36 -10 -40 -14 -39 -43 1 -23 -3 -33 -17
-37 -45 -15 -56 44 -13 71 15 11 23 23 19 32 -15 39 31 81 91 82 23 0 33 -5
37 -19z m703 -105 c19 -44 34 -84 34 -89 0 -6 -11 -25 -26 -44 -27 -35 -58
-42 -97 -22 -32 17 -37 30 -30 72 5 31 3 37 -12 37 -13 0 -16 6 -12 26 3 19 1
24 -9 20 -8 -3 -21 -9 -29 -12 -16 -7 -18 1 -6 30 8 20 105 66 134 63 13 -1
29 -27 53 -81z m-484 29 c63 -10 79 -21 54 -40 -11 -9 -29 -12 -39 -9 -17 5
-19 3 -12 -12 19 -43 17 -89 -4 -114 l-21 -25 6 27 c8 38 -28 109 -67 132
l-32 19 23 19 c13 10 29 17 35 14 7 -2 33 -7 57 -11z m252 -17 c3 -7 7 -54 10
-105 l6 -92 -37 -22 c-32 -20 -38 -21 -61 -8 -32 18 -38 35 -15 43 10 4 19 2
21 -3 6 -18 32 -12 32 8 0 10 -3 46 -7 80 l-6 63 -44 -7 c-34 -5 -43 -3 -43 8
0 24 23 35 75 40 28 2 54 4 58 5 4 1 9 -4 11 -10z m-330 -163 c3 -8 12 -15 21
-15 25 0 17 -19 -10 -26 -33 -8 -71 22 -54 43 15 17 35 17 43 -2z"/>
<path d="M2361 3260 c-275 -67 -491 -288 -551 -561 -20 -89 -8 -268 23 -357
68 -195 235 -367 428 -442 122 -47 251 -65 368 -52 192 20 342 92 477 227 66
65 90 98 128 175 61 124 80 213 73 350 -8 157 -56 283 -156 406 -95 119 -247
214 -405 254 -103 26 -279 26 -385 0z m379 -16 c36 -9 108 -36 160 -62 80 -39
109 -60 186 -136 74 -74 98 -107 132 -176 57 -116 72 -182 72 -316 0 -197 -58
-333 -205 -480 -78 -78 -106 -99 -186 -138 -125 -60 -206 -79 -349 -78 -334 1
-606 193 -706 499 -26 78 -29 102 -28 208 0 101 4 132 26 198 89 267 322 456
612 497 77 11 202 4 286 -16z"/>
<path d="M2462 3248 c-242 -27 -450 -170 -565 -388 -93 -177 -94 -418 -3 -598
91 -180 270 -320 473 -373 134 -34 318 -24 449 24 280 102 464 359 464 647 0
352 -271 643 -640 688 -83 10 -88 10 -178 0z m88 -73 c0 -8 0 -18 1 -22 0 -4
-4 -9 -10 -11 -7 -2 -8 3 -5 13 4 10 1 21 -7 26 -11 7 -11 9 4 9 9 0 17 -7 17
-15z m85 -15 c0 -16 -6 -26 -17 -28 -13 -2 -18 3 -18 18 0 19 2 20 15 10 10
-8 15 -9 15 -2 0 6 -8 16 -17 22 -16 10 -16 10 2 8 14 -2 20 -11 20 -28z
m-177 8 c15 -15 16 -38 2 -38 -5 0 -10 7 -10 15 0 8 -4 15 -10 15 -5 0 -10 5
-10 10 0 14 13 13 28 -2z m236 -10 c-5 -8 0 -9 14 -6 17 5 22 2 22 -12 0 -13
-7 -17 -25 -16 -19 1 -25 7 -25 24 0 12 5 22 11 22 5 0 7 -5 3 -12z m-304 -17
c14 -27 13 -36 -4 -22 -11 9 -15 8 -21 -6 -6 -17 -7 -17 -21 1 -10 14 -11 23
-3 33 16 19 37 16 49 -6z m414 -23 c13 21 23 13 18 -13 -4 -25 -22 -36 -22
-14 0 6 -7 9 -15 5 -17 -6 -18 -2 -8 34 l7 25 6 -25 c4 -17 8 -21 14 -12z
m-494 -26 c0 -8 -6 -12 -14 -9 -7 3 -18 1 -24 -5 -7 -7 -14 -4 -21 11 -8 14
-8 21 -1 21 5 0 10 -5 10 -11 0 -5 4 -8 10 -4 5 3 6 13 3 21 -5 14 -3 14 16 3
11 -8 21 -20 21 -27z m377 -7 c206 -48 371 -210 418 -407 97 -413 -333 -771
-747 -622 -206 75 -334 228 -368 440 -35 216 96 447 310 547 35 17 87 36 115
43 70 17 198 17 272 -1z m196 -5 c-3 -11 -9 -20 -14 -20 -11 0 -11 3 -3 24 9
23 23 20 17 -4z m-665 -20 c7 -11 9 -20 4 -20 -4 0 -15 9 -25 20 -11 14 -13
20 -4 20 7 0 18 -9 25 -20z m789 6 c0 -8 -6 -12 -14 -9 -7 3 -13 9 -13 14 0 5
6 9 13 9 8 0 14 -6 14 -14z m-42 -10 c12 -12 11 -16 -4 -30 -10 -9 -25 -14
-35 -10 -17 7 -22 24 -6 24 6 0 10 7 10 15 0 19 17 19 35 1z m-818 -35 c12
-19 8 -31 -9 -31 -5 0 -6 5 -3 11 4 6 -1 17 -11 24 -15 11 -16 14 -4 15 8 0
21 -9 27 -19z m893 -29 c0 -5 -9 -17 -20 -27 -23 -21 -26 -14 -8 15 13 20 28
27 28 12z m-950 -27 c15 -18 -1 -20 -18 -3 -20 20 -26 -1 -7 -22 10 -11 14
-20 8 -20 -5 0 -17 8 -26 18 -13 14 -14 21 -5 30 16 16 33 15 48 -3z m968 -34
c-7 -11 -16 -17 -20 -14 -10 5 10 33 23 33 5 0 4 -9 -3 -19z m-1066 -13 c-7
-7 -12 -8 -12 -2 0 14 12 26 19 19 2 -3 -1 -11 -7 -17z m1121 -50 c-18 -20
-18 -21 7 -13 22 7 23 6 11 -9 -18 -22 -34 -20 -49 5 -7 12 -12 22 -10 22 2 1
12 7 23 13 29 17 39 6 18 -18z m63 21 c3 -6 2 -15 -4 -21 -6 -6 -11 -2 -15 11
-5 22 7 29 19 10z m-1131 -9 c3 -6 0 -13 -9 -16 -8 -3 -12 -12 -9 -21 5 -12 1
-14 -18 -8 -33 10 -52 30 -21 22 24 -6 28 3 10 21 -9 9 -6 12 14 12 15 0 30
-5 33 -10z m-45 -85 c0 -2 -13 -5 -30 -7 -22 -3 -27 -2 -19 8 8 10 49 9 49 -1z
m1150 -13 c0 -5 -7 -9 -15 -9 -8 0 -15 4 -15 9 0 4 7 8 15 8 8 0 15 -4 15 -8z
m14 -29 c-21 -16 -34 -17 -34 -3 0 6 7 10 15 10 9 0 19 8 22 17 5 13 8 14 11
3 3 -7 -3 -19 -14 -27z m-1244 7 c0 -5 -4 -10 -10 -10 -5 0 -10 5 -10 10 0 6
5 10 10 10 6 0 10 -4 10 -10z m60 -40 c0 -5 -8 -10 -17 -10 -15 0 -16 -2 -3
-10 8 -5 12 -12 8 -15 -9 -9 -48 17 -48 32 0 8 13 13 30 13 17 0 30 -4 30 -10z
m1186 -15 c-7 -18 5 -20 23 -2 11 10 13 9 9 -3 -6 -20 -48 -26 -48 -7 0 13 9
27 18 27 2 0 2 -7 -2 -15z m51 -115 c3 -11 12 -20 19 -20 8 0 14 -9 14 -20 0
-11 -5 -20 -11 -20 -7 0 -18 -8 -25 -17 -13 -17 -15 -17 -28 0 -7 9 -18 17
-24 17 -20 0 -23 32 -3 37 11 3 21 13 24 24 7 25 27 24 34 -1z m-1297 -9 c0
-11 6 -18 16 -17 25 2 29 -24 5 -31 -12 -3 -21 -12 -21 -20 0 -9 -7 -13 -17
-11 -10 2 -17 10 -15 16 1 7 -7 12 -19 12 -14 0 -19 5 -17 18 2 9 11 16 21 16
10 -1 17 5 17 17 0 11 7 19 15 19 8 0 15 -8 15 -19z m1274 -171 c26 -10 36
-43 16 -55 -14 -8 -70 4 -70 15 0 5 17 6 38 3 34 -6 36 -5 23 10 -7 10 -19 17
-27 17 -7 0 -16 5 -19 10 -8 13 6 13 39 0z m-1218 -19 c-9 -14 -66 -32 -66
-20 0 10 35 27 58 28 7 1 11 -3 8 -8z m24 -49 c0 -4 -5 -13 -12 -20 -9 -9 -7
-12 10 -12 33 0 27 -26 -9 -39 -42 -14 -44 -14 -29 5 11 12 11 15 -1 12 -8 -2
-13 4 -13 14 1 10 -2 15 -7 12 -5 -3 -9 -1 -9 4 0 10 37 30 58 31 6 1 12 -3
12 -7z m1178 -46 c-10 -7 -18 -21 -18 -30 0 -22 -9 -20 -37 6 -33 31 -29 38
25 38 41 -1 45 -2 30 -14z m-1133 -67 c-5 -16 -3 -20 11 -17 30 5 25 -17 -8
-36 -27 -16 -30 -17 -25 -3 4 12 2 14 -10 10 -13 -5 -15 -2 -11 15 4 16 2 19
-11 15 -10 -3 -7 3 8 16 31 28 55 28 46 0z m1035 13 c0 -4 -5 -13 -12 -20 -16
-16 4 -16 21 1 11 10 12 8 6 -10 -7 -25 4 -30 23 -11 7 7 12 8 12 2 0 -13 -21
-34 -34 -34 -6 0 -22 9 -35 19 -21 16 -22 20 -10 39 14 22 29 29 29 14z m-982
-99 c-15 -15 -30 -24 -34 -20 -7 7 35 46 51 47 5 0 -3 -12 -17 -27z m945 7
c22 -26 21 -30 -3 -30 -13 0 -18 -5 -14 -15 9 -21 -6 -19 -33 7 -21 20 -22 23
-6 40 21 23 34 23 56 -2z m-861 -44 c15 -22 7 -29 -12 -11 -19 17 -22 18 -37
2 -14 -14 -15 -19 -4 -29 11 -10 14 -10 18 0 6 17 23 15 23 -2 0 -22 -17 -28
-40 -16 -25 13 -27 55 -3 68 18 11 44 5 55 -12z m783 -22 c13 -20 14 -28 4
-40 -18 -21 -45 -17 -63 11 -20 30 -7 33 19 5 12 -14 22 -17 29 -10 6 6 4 16
-7 28 -19 21 -22 32 -8 32 5 0 16 -12 26 -26z m-701 -33 c15 -16 15 -19 1 -31
-8 -7 -15 -19 -15 -26 0 -8 -4 -14 -10 -14 -5 0 -10 9 -10 21 0 16 -4 19 -21
14 -21 -7 -21 -7 -3 24 21 36 34 39 58 12z m609 -22 c17 -20 18 -22 1 -40 -24
-26 -36 -24 -55 10 -28 48 18 73 54 30z m-519 -25 c8 -20 8 -64 0 -64 -3 0
-12 7 -20 15 -8 8 -21 12 -29 9 -21 -9 -18 6 7 33 25 27 34 29 42 7z m96 -14
c10 -6 11 -10 3 -10 -7 0 -13 -8 -13 -17 0 -10 -4 -24 -9 -32 -6 -9 -10 0 -13
28 -4 42 4 49 32 31z m275 -21 c9 -39 0 -47 -27 -23 -19 17 -21 17 -15 2 3
-10 2 -20 -3 -23 -10 -6 -25 53 -16 63 4 3 12 0 18 -6 17 -17 31 -15 24 3 -3
8 -1 15 4 15 4 0 11 -14 15 -31z m-219 -57 c-13 -12 -17 8 -10 40 l9 33 3 -33
c2 -19 1 -36 -2 -40z m115 52 c19 -23 -1 -49 -37 -49 -30 0 -42 20 -30 51 7
19 50 18 67 -2z"/>
<path d="M2455 3064 c-95 -22 -173 -60 -262 -125 -30 -22 -59 -51 -65 -65 -6
-13 -15 -24 -19 -24 -12 0 -40 -56 -32 -64 4 -3 1 -6 -5 -6 -17 0 -53 -109
-59 -180 -20 -240 150 -469 397 -535 71 -19 210 -19 283 0 179 47 326 186 378
357 18 57 20 84 15 165 -4 54 -11 102 -16 107 -6 6 -10 18 -10 28 0 10 -11 36
-25 58 -14 22 -25 43 -25 48 0 17 -110 122 -162 156 -81 51 -167 77 -278 81
-52 2 -104 2 -115 -1z m92 -36 c-3 -8 -6 -5 -6 6 -1 11 2 17 5 13 3 -3 4 -12
1 -19z m43 -2 c0 -3 -4 -8 -10 -11 -5 -3 -10 -1 -10 4 0 6 5 11 10 11 6 0 10
-2 10 -4z m-80 -30 c0 -9 -40 -13 -46 -5 -3 5 6 9 20 9 14 0 26 -2 26 -4z
m113 -3 c-7 -2 -21 -2 -30 0 -10 3 -4 5 12 5 17 0 24 -2 18 -5z m-132 -43
c-22 -19 -41 -26 -41 -15 0 5 51 34 60 34 3 0 -6 -9 -19 -19z m134 0 c17 -11
23 -20 15 -20 -17 0 -71 39 -55 40 6 0 24 -9 40 -20z m15 -83 c1 -21 -24 3
-47 43 l-25 45 35 -40 c20 -22 36 -44 37 -48z m-140 34 c-19 -38 -40 -61 -40
-44 0 10 49 83 56 83 2 0 -5 -18 -16 -39z m299 11 c13 -10 30 -27 38 -39 14
-22 14 -22 -24 -11 -37 10 -93 52 -93 71 0 13 50 -1 79 -21z m-438 -10 c-18
-15 -52 -35 -75 -44 -22 -9 -33 -17 -23 -17 40 -2 6 -45 -50 -65 -36 -13 -43
-13 -43 -1 0 24 21 69 42 93 26 27 38 28 38 5 0 -15 5 -13 23 8 29 35 55 48
92 49 l30 0 -34 -28z m198 -19 c-7 -7 -6 -14 1 -18 7 -5 0 -14 -19 -26 -34
-20 -37 -29 -19 -47 16 -16 43 -15 58 3 10 12 9 16 -5 21 -10 4 -21 1 -25 -7
-5 -7 -12 -10 -15 -7 -13 13 6 28 35 28 37 0 44 -23 16 -49 -27 -25 -39 -26
-71 -5 -30 20 -32 38 -6 61 11 9 18 20 15 25 -3 4 -2 14 3 21 8 12 10 18 12
39 0 6 7 3 15 -8 10 -12 11 -23 5 -31z m334 -21 c15 -15 30 -43 33 -61 l7 -34
-33 7 c-33 6 -80 41 -80 58 0 4 9 8 20 8 17 0 19 5 14 25 -8 33 6 32 39 -3z
m-733 -98 c0 -27 3 -28 31 -14 37 20 21 -24 -26 -70 -38 -37 -47 -42 -55 -30
-17 27 -11 96 11 124 23 30 39 26 39 -10z m181 -76 c12 -30 29 -38 29 -14 0
13 20 26 40 26 5 0 2 -16 -5 -35 l-15 -34 37 -26 c42 -28 54 -30 71 -13 7 7 8
17 2 29 -8 13 -4 25 15 47 14 17 25 35 25 41 0 6 5 11 10 11 6 0 10 -6 10 -13
0 -8 9 -22 21 -33 16 -14 20 -27 16 -51 -8 -49 24 -53 85 -11 24 17 26 22 17
46 -6 14 -16 30 -22 34 -8 5 -5 8 8 8 27 0 42 -11 47 -35 7 -33 41 41 42 92 1
25 6 43 12 43 16 0 44 -73 44 -112 0 -73 -45 -161 -107 -211 -19 -15 -21 -21
-10 -38 17 -27 0 -50 -48 -63 -35 -10 -37 -12 -21 -25 14 -12 23 -13 49 -3 19
7 35 8 40 3 13 -13 -1 -31 -23 -31 -30 0 -69 -21 -75 -41 -10 -31 -84 -44
-142 -25 -22 7 -43 48 -27 53 23 8 36 22 32 34 -3 10 -11 6 -29 -11 -23 -23
-28 -24 -65 -14 -22 6 -39 17 -39 25 0 8 7 12 15 10 31 -9 73 -6 77 6 3 7 -10
16 -28 20 -42 11 -58 36 -42 62 11 17 9 23 -16 43 -92 76 -128 216 -75 296
l18 27 8 -45 c4 -25 13 -57 19 -72z m641 90 c23 -35 27 -69 14 -112 l-11 -38
-47 50 c-47 50 -64 91 -33 78 8 -3 22 -9 31 -13 13 -5 15 -2 10 15 -14 42 13
56 36 20z m-868 -151 c3 4 6 1 6 -6 0 -7 9 -3 20 10 l19 24 1 -45 c0 -28 -8
-58 -21 -79 -19 -32 -21 -33 -40 -15 -25 23 -43 85 -34 121 l7 28 18 -22 c9
-12 20 -19 24 -16z m926 -16 c0 -38 -36 -107 -55 -105 -17 3 -45 69 -45 108
l0 39 24 -22 23 -22 17 26 c22 33 36 24 36 -24z m-67 -125 c3 -7 11 -5 24 7
32 28 42 22 32 -20 -8 -39 -71 -109 -88 -99 -16 10 -22 76 -10 118 10 39 12
41 25 24 7 -10 15 -24 17 -30z m-802 7 c12 -31 6 -100 -9 -115 -16 -16 -78 47
-90 92 -8 32 -7 40 4 40 7 0 18 -9 24 -21 9 -16 14 -18 26 -8 8 6 14 18 14 25
0 24 20 15 31 -13z m54 -124 c9 -16 19 -49 24 -73 l8 -43 -38 7 c-49 9 -85 33
-103 69 -18 34 -12 43 20 31 16 -6 24 -6 24 1 0 6 5 7 10 4 6 -3 10 2 10 13 0
41 22 37 45 -9z m695 15 c0 -14 4 -23 10 -19 6 3 10 2 10 -4 0 -7 8 -7 25 1
34 15 40 6 20 -32 -19 -37 -69 -70 -107 -70 -23 0 -28 4 -28 25 0 14 7 42 15
62 27 65 55 84 55 37z m-92 -101 c-3 -37 -2 -38 37 -43 l40 -5 -40 -27 c-49
-33 -87 -43 -112 -30 -11 6 -25 7 -32 3 -9 -6 -5 -10 13 -15 35 -9 33 -22 -5
-35 -46 -16 -91 -14 -119 6 -14 10 -25 13 -27 6 -2 -5 -10 -19 -18 -29 -15
-20 -18 -19 -44 25 -7 12 -12 12 -27 -3 -14 -15 -29 -17 -76 -14 -74 5 -92 20
-49 42 31 16 31 17 16 46 -9 18 -11 31 -5 35 17 10 97 -32 116 -60 l17 -27 14
26 c17 33 30 33 45 1 l11 -25 28 33 c26 31 103 66 116 53 3 -3 -2 -17 -11 -31
-13 -20 -14 -25 -3 -25 8 0 22 19 31 43 13 33 65 87 84 87 2 0 2 -17 0 -37z
m-500 -7 c17 -19 33 -45 37 -58 4 -13 12 -26 18 -30 6 -3 -10 -9 -36 -13 -38
-6 -53 -3 -88 16 -56 31 -61 49 -15 49 34 0 35 1 29 35 -7 47 15 47 55 1z"/>
<path d="M2595 2340 c-6 -9 25 -30 44 -30 20 0 11 17 -14 28 -14 7 -27 7 -30
2z"/>
<path d="M2935 3030 c-3 -5 -2 -10 4 -10 5 0 13 5 16 10 3 6 2 10 -4 10 -5 0
-13 -4 -16 -10z"/>
<path d="M3000 2139 c0 -5 5 -7 10 -4 6 3 10 8 10 11 0 2 -4 4 -10 4 -5 0 -10
-5 -10 -11z"/>
<path d="M2230 2040 c0 -5 7 -10 16 -10 8 0 12 5 9 10 -3 6 -10 10 -16 10 -5
0 -9 -4 -9 -10z"/>
<path d="M2835 2030 c-3 -5 -1 -10 4 -10 6 0 11 5 11 10 0 6 -2 10 -4 10 -3 0
-8 -4 -11 -10z"/>
<path d="M2840 2000 c0 -5 4 -10 9 -10 6 0 13 5 16 10 3 6 -1 10 -9 10 -9 0
-16 -4 -16 -10z"/>
<path d="M2572 1948 c2 -12 10 -23 18 -23 22 0 19 39 -3 43 -15 3 -18 -1 -15
-20z"/>
<path d="M3240 2149 c0 -5 5 -7 10 -4 6 3 10 8 10 11 0 2 -4 4 -10 4 -5 0 -10
-5 -10 -11z"/>
<path d="M3310 2100 c0 -5 5 -10 10 -10 6 0 10 5 10 10 0 6 -4 10 -10 10 -5 0
-10 -4 -10 -10z"/>
<path d="M1272 2400 c-24 -31 -16 -38 21 -19 29 16 28 14 21 33 -9 23 -17 20
-42 -14z"/>
<path d="M3776 2325 c-3 -9 0 -15 8 -15 18 0 29 -31 16 -44 -18 -18 -11 -26
28 -26 40 0 111 36 96 49 -9 7 -125 51 -136 51 -3 0 -8 -7 -12 -15z"/>
<path d="M2994 1185 c-16 -13 -17 -16 -4 -25 22 -15 27 -12 32 15 6 29 0 31
-28 10z"/>
<path d="M2163 1193 c-15 -6 -17 -59 -3 -68 6 -3 10 3 10 14 0 11 7 21 16 23
12 2 13 6 2 19 -7 9 -19 15 -25 12z"/>
<path d="M2821 1101 c-11 -7 -11 -10 2 -17 10 -6 17 -26 19 -54 3 -41 6 -45
36 -54 18 -5 35 -7 37 -4 3 3 -7 35 -22 71 -28 66 -42 77 -72 58z"/>
</g>
</svg>
